<svg width="1074" height="1074" viewBox="0 0 1074 1074" fill="none" xmlns="http://www.w3.org/2000/svg">
<g filter="url(#filter0_d)">
<circle cx="537" cy="532" r="512" fill="#373737"/>
</g>
<path d="M217 408.939V664.453L316.772 721.882V582.202L285.137 564.681V448.361L217 408.939Z" fill="url(#paint0_linear)"/>
<path d="M857 408.939V664.453L757.228 721.882V582.202L788.863 564.681V448.361L857 408.939Z" fill="url(#paint1_linear)"/>
<path d="M724.133 719.935V605.563L436.012 770.551L537.244 830.901L724.133 719.935Z" fill="url(#paint2_linear)"/>
<path d="M217 420.62L217.487 297L643.829 541.806L534.81 605.076L217 420.62Z" fill="url(#paint3_linear)"/>
<path d="M349.38 719.935V605.563L638.475 770.551L537.243 830.901L349.38 719.935Z" fill="url(#paint4_linear)"/>
<path d="M857 420.62L856.513 297L427.251 542.779L536.27 606.049L857 420.62Z" fill="url(#paint5_linear)"/>
<defs>
<filter id="filter0_d" x="0" y="0" width="1074" height="1074" filterUnits="userSpaceOnUse" color-interpolation-filters="sRGB">
<feFlood flood-opacity="0" result="BackgroundImageFix"/>
<feColorMatrix in="SourceAlpha" type="matrix" values="0 0 0 0 0 0 0 0 0 0 0 0 0 0 0 0 0 0 127 0"/>
<feOffset dy="5"/>
<feGaussianBlur stdDeviation="12.5"/>
<feColorMatrix type="matrix" values="0 0 0 0 0 0 0 0 0 0 0 0 0 0 0 0 0 0 0.25 0"/>
<feBlend mode="normal" in2="BackgroundImageFix" result="effect1_dropShadow"/>
<feBlend mode="normal" in="SourceGraphic" in2="effect1_dropShadow" result="shape"/>
</filter>
<linearGradient id="paint0_linear" x1="217" y1="565.654" x2="316.285" y2="565.654" gradientUnits="userSpaceOnUse">
<stop stop-color="#03B1DD"/>
<stop offset="1" stop-color="#5BCADD"/>
</linearGradient>
<linearGradient id="paint1_linear" x1="690.065" y1="608.97" x2="836.072" y2="603.616" gradientUnits="userSpaceOnUse">
<stop stop-color="#01B0DD"/>
<stop offset="1" stop-color="#5BCADD"/>
</linearGradient>
<linearGradient id="paint2_linear" x1="551.358" y1="760.817" x2="724.133" y2="671.753" gradientUnits="userSpaceOnUse">
<stop stop-color="#0292DD"/>
<stop offset="1" stop-color="#5ECBDD"/>
</linearGradient>
<linearGradient id="paint3_linear" x1="252.529" y1="239.084" x2="643.342" y2="450.795" gradientUnits="userSpaceOnUse">
<stop offset="0.264437" stop-color="#58C8DD"/>
<stop offset="1" stop-color="#0D98DD"/>
</linearGradient>
<linearGradient id="paint4_linear" x1="360.574" y1="702.901" x2="605.38" y2="806.567" gradientUnits="userSpaceOnUse">
<stop stop-color="#5DCBDD"/>
<stop offset="1" stop-color="#08B2DD"/>
</linearGradient>
<linearGradient id="paint5_linear" x1="955.312" y1="325.228" x2="548.924" y2="514.065" gradientUnits="userSpaceOnUse">
<stop stop-color="#01B0DD"/>
<stop offset="1" stop-color="#5ACADD"/>
</linearGradient>
</defs>
</svg>
